<svg width="30" height="30" viewBox="0 0 30 30" fill="none" xmlns="http://www.w3.org/2000/svg">
<path d="M25.6086 21.425L20.5274 16.805C20.2872 16.5867 19.9715 16.4703 19.6471 16.4803C19.3227 16.4903 19.0149 16.626 18.7886 16.8587L15.7974 19.935C15.0774 19.7975 13.6299 19.3462 12.1399 17.86C10.6499 16.3687 10.1986 14.9175 10.0649 14.2025L13.1386 11.21C13.3716 10.9839 13.5075 10.676 13.5176 10.3515C13.5276 10.027 13.411 9.71129 13.1924 9.47124L8.57361 4.39124C8.35492 4.15044 8.05096 4.00437 7.72631 3.98407C7.40165 3.96376 7.08186 4.07082 6.83486 4.28249L4.12236 6.60874C3.90625 6.82564 3.77726 7.11431 3.75986 7.41999C3.74111 7.73249 3.38361 15.135 9.12361 20.8775C14.1311 25.8837 20.4036 26.25 22.1311 26.25C22.3836 26.25 22.5386 26.2425 22.5799 26.24C22.8855 26.2229 23.174 26.0933 23.3899 25.8762L25.7149 23.1625C25.9274 22.9163 26.0352 22.5968 26.0154 22.2721C25.9955 21.9475 25.8495 21.6435 25.6086 21.425Z" fill="black"/>
</svg>
