<svg width="20" height="20" viewBox="0 0 20 20" fill="none" xmlns="http://www.w3.org/2000/svg">
<path fill-rule="evenodd" clip-rule="evenodd" d="M0.833496 2.36498C0.833496 1.95876 0.994868 1.56917 1.28211 1.28193C1.56935 0.994687 1.95894 0.833315 2.36516 0.833315H17.6335C17.8348 0.832986 18.0342 0.872367 18.2203 0.949204C18.4064 1.02604 18.5754 1.13882 18.7179 1.2811C18.8603 1.42337 18.9733 1.59233 19.0503 1.77832C19.1273 1.96431 19.1669 2.16367 19.1668 2.36498V17.6333C19.167 17.8347 19.1276 18.0341 19.0506 18.2202C18.9737 18.4062 18.8608 18.5753 18.7185 18.7177C18.5762 18.8602 18.4072 18.9731 18.2211 19.0501C18.0351 19.1272 17.8357 19.1668 17.6343 19.1666H2.36516C2.16395 19.1666 1.96471 19.127 1.77883 19.05C1.59294 18.973 1.42406 18.8601 1.28182 18.7177C1.13958 18.5754 1.02677 18.4065 0.949848 18.2205C0.872924 18.0346 0.833387 17.8354 0.833496 17.6341V2.36498ZM8.09016 7.82332H10.5727V9.06998C10.931 8.35332 11.8477 7.70832 13.2252 7.70832C15.866 7.70832 16.4918 9.13582 16.4918 11.755V16.6066H13.8193V12.3516C13.8193 10.86 13.461 10.0183 12.551 10.0183C11.2885 10.0183 10.7635 10.9258 10.7635 12.3516V16.6066H8.09016V7.82332ZM3.50683 16.4925H6.18016V7.70832H3.50683V16.4916V16.4925ZM6.56266 4.84332C6.5677 5.07221 6.52697 5.2998 6.44286 5.51274C6.35875 5.72568 6.23296 5.91968 6.07286 6.08334C5.91276 6.24701 5.72158 6.37704 5.51054 6.46582C5.29951 6.5546 5.07286 6.60033 4.84391 6.60033C4.61496 6.60033 4.38832 6.5546 4.17728 6.46582C3.96625 6.37704 3.77507 6.24701 3.61497 6.08334C3.45487 5.91968 3.32907 5.72568 3.24496 5.51274C3.16085 5.2998 3.12012 5.07221 3.12516 4.84332C3.13506 4.39403 3.32048 3.96647 3.64173 3.65222C3.96298 3.33797 4.39452 3.162 4.84391 3.162C5.29331 3.162 5.72484 3.33797 6.04609 3.65222C6.36734 3.96647 6.55277 4.39403 6.56266 4.84332Z" fill="black"/>
</svg>
