<svg width="22" height="28" viewBox="0 0 22 28" fill="none" xmlns="http://www.w3.org/2000/svg">
<path d="M11 0.120056C8.08369 0.123446 5.28779 1.26656 3.22564 3.29864C1.16348 5.33072 0.00345217 8.08584 1.17029e-05 10.9596C-0.00348119 13.3081 0.774992 15.5929 2.21601 17.4634C2.21601 17.4634 2.51601 17.8526 2.56501 17.9088L11 27.7117L19.439 17.9039C19.483 17.8516 19.784 17.4634 19.784 17.4634L19.785 17.4604C21.2253 15.5907 22.0034 13.307 22 10.9596C21.9966 8.08584 20.8365 5.33072 18.7744 3.29864C16.7122 1.26656 13.9163 0.123446 11 0.120056ZM11 14.9013C10.2089 14.9013 9.43553 14.6701 8.77773 14.237C8.11993 13.8039 7.60724 13.1883 7.30449 12.4681C7.00174 11.7478 6.92253 10.9553 7.07687 10.1907C7.23121 9.42605 7.61217 8.72371 8.17158 8.17246C8.73099 7.62121 9.44373 7.2458 10.2197 7.09371C10.9956 6.94162 11.7998 7.01968 12.5307 7.31801C13.2616 7.61635 13.8864 8.12156 14.3259 8.76977C14.7654 9.41797 15 10.1801 15 10.9596C14.9987 12.0046 14.5768 13.0065 13.827 13.7454C13.0771 14.4843 12.0605 14.9 11 14.9013Z" fill="black"/>
</svg>
